<svg xmlns="http://www.w3.org/2000/svg" width="40" height="16" version="1.1" viewBox="0 0 40 16"><g id="Page-1" fill="none" fill-rule="evenodd" stroke="none" stroke-width="1"><g id="plp-brand-story-video-autoplay" transform="translate(-188 -336)"><g id="luxe-tag" transform="translate(188 336)"><path id="tag" fill="#000" d="M1.282 0h37.436c.446 0 .607.046.77.134.163.087.291.215.378.378.088.163.134.324.134.77v13.436c0 .446-.046.607-.134.77a.909.909 0 0 1-.378.378c-.163.088-.324.134-.77.134H1.282c-.446 0-.607-.046-.77-.134a.909.909 0 0 1-.378-.378c-.088-.163-.134-.324-.134-.77V1.282C0 .836.046.675.134.512A.909.909 0 0 1 .512.134C.675.046.836 0 1.282 0Z"/><path id="luxe" fill="#FFF" fill-rule="nonzero" d="M13.382 4v4.864c0 1.455.46 1.999 1.62 1.999 1.175 0 1.685-.495 1.724-1.95l.003-.186V4h1.295v4.853c0 2-1.058 3.147-3.043 3.147-1.777 0-2.821-1.028-2.89-2.835l-.005-.196V4h1.296Zm21.504 0v1.127h-3.474v2.178h2.8v1.127h-2.8v2.346h3.663v1.127h-4.958V4h4.769ZM22.37 4l.055.089 1.711 2.701L25.84 4.09 25.895 4h1.39l-2.458 3.852 2.573 4.053h-1.486l-.053-.088-1.85-2.915-1.848 2.915-.058.088h-1.367l2.606-4.054L20.91 4h1.461ZM6.295 4v6.778h3.442v1.127H5V4h1.295Z"/></g></g></g></svg>