<svg xmlns="http://www.w3.org/2000/svg" width="58" height="32" fill="none" viewBox="0 0 58 32"><path fill="#242021" fill-rule="evenodd" d="M22.572 25.66c-.482-.648-1.116-1.198-1.85-1.836l-.02-.016-.185-.16c-.121-.105-.241-.206-.36-.306-.63-.532-1.224-1.036-1.676-1.605-.495-.6-.716-1.177-.716-1.874 0-1.39.867-2.066 2.65-2.066.676 0 1.446.056 2.167.16l.082.012v-.8l-.06-.012c-.912-.165-1.83-.26-2.52-.26-2.772 0-4.237 1.247-4.237 3.608 0 1.12.44 1.89.823 2.438.502.702 1.165 1.265 1.933 1.915l.276.235c.178.157.352.305.518.447l.004.004.102.087c.513.433.956.807 1.298 1.233.434.532.62 1.086.62 1.853 0 1.6-.92 2.346-2.898 2.346-.977 0-1.973-.086-2.731-.16l-.079-.008-.003.805.06.01c1.187.187 2.25.282 3.155.282 2.799 0 4.469-1.417 4.469-3.79 0-.977-.254-1.762-.823-2.541h-.001l.002-.001Zm14.334-8.6h-2.038l-.02 14.796h2.04l.018-14.795ZM56.153 28V17.07h.908V31.88l-1.178-.002-5.876-11.17v11.168h-.922V17.07l1.29-.003L56.152 28ZM43.036 16.898c-3.257 0-4.84 2.47-4.84 7.55 0 5.081 1.583 7.552 4.84 7.552 3.258 0 4.858-2.47 4.858-7.551 0-5.081-1.589-7.552-4.858-7.552Zm2.65 8.249-.018.053c-.897 3.21-1.638 4.728-2.563 5.237-.465.257-1.01.272-1.769.05-1.84-.54-2.372-1.61-.911-6.832.913-3.261 1.72-4.883 2.697-5.421a1.77 1.77 0 0 1 .874-.219 3.1 3.1 0 0 1 .857.138c1.989.585 2.177 2.156.833 6.993ZM9.732 17.056h1.727l3.766 14.8h-2.058l-1.09-3.948H7.962l-1.048 3.948H6.03l3.7-14.8Zm.284 2.454-1.711 7.096h3.459l-1.748-7.096ZM7.07 17.05H.002v14.8H2.01v-6.744h4.402v-1.3H2.01v-5.471h5.059V17.05Zm24.05 6.756.018-6.745h2.004l-.02 14.795H31.12v-6.753h-4.421v6.753h-2.003V17.06h2.003v6.747h4.42Z" clip-rule="evenodd"/><path fill="#FC2779" d="M20.495 1.7c.197-.367.648-1.103.091-1.379-.327-.161-.77-.26-1.107-.087-.284.146-.492.44-.63.71L16.703 4.32c-.346.481-.676 1.086-1.389 1.165-.47.051-.813-.147-.805-.568.009-.426.258-1.005.451-1.372.559-1.06.63-1.422 1.171-2.477.517-1.007-1.18-1.238-1.603-.509-.302.521-.879 1.502-1.013 1.832-.242.597-2.04 3.46-1.259 4.594 1.005 1.28 3.67-.736 2.303 1.592-1.098 1.87-1.789 2.939-2.75 4.672-.207.374-.468.745-.538 1.178-.1.618.751.614 1.116.587.655-.048.96-.347 1.224-.942.136-.308.33-.693.47-.998 1.264-2.755 2.605-5.142 4.268-7.81.783-1.256 1.491-2.345 2.146-3.565M13.362.784c.497-.96-1.117-.688-1.117-.688-.586 0-.845.702-.964.906L9.526 4.455c-.333.566-1.417 3.01-1.784 3.554-.026-.549.007-1.651.025-1.914.071-1.042.144-1.828.251-2.788.083-.74.24-1.575.086-2.315-.095-.46-.247-.495-.908-.564-.687-.073-1.162.934-1.39 1.403-.846 1.74-1.787 3.447-2.537 5.228-.218.518-.494 1.037-.716 1.554-.267.62-.522 1.236-.814 1.845-.31.645-1.28 2.743-1.555 3.402-.3.721-.363 1.302.843 1.271.187-.004.612.045 1.13-.518.406-.44.489-.851.733-1.46.865-2.16 1.467-3.599 2.41-5.734.095-.213.305-.817.513-1.293-.01.67-.123 1.474-.166 2.004-.157 1.94-.272 3.816-.44 5.737-.023.258-.093.567.03.81.12.24.415.304.662.334.964.117 1.063-.359 1.363-1.024.266-.588.43-1.069.67-1.668a88.49 88.49 0 0 1 2.385-5.482c.22-.458.444-.915.682-1.364.437-.829.802-1.613 1.28-2.531.355-.68.702-1.423 1.082-2.155m25.806 5.636c0 .022-.003.045-.004.068l-1.718.33c.614-1.581 1.253-3.521 1.628-4.5-.026.723.129 3.378.094 4.1M31.48 8.104c-.001.006-.006.013-.013.019l-3.281.726c.703-1.17 3.78-5.432 4.255-5.932-.257 1.317-.685 3.77-.961 5.187Zm14.864-2.108c-.105-1.109-1.635-.553-2.547-.384l-2.607.492c-.046-1.249-.025-.999-.042-1.759-.026-1.103-.092-1.958-.154-2.934-.04-.613-.126-1.457-1.234-1.3-1.276.18-1.494.817-1.834 1.589-.887 2.013-.863 2.023-1.873 4.26-.076.168-.451 1.075-.511 1.249l-.221.06-1.464.323.008-.053c.128-1.025.29-2.046.434-3.069.13-.933.267-2.449.378-3.383.12-1.004-1.043-.978-1.043-.978-.709-.042-.985.168-1.43.746-.77 1.001-1.697 2.082-2.52 3.183-1.487 1.992-2.586 3.497-3.938 5.493-.391.58-.995 1.466-1.515 2.15-.347-.696-.646-1.456-.938-2.15-.417-.998-.729-1.617-.934-2.281-.181-.583.036-.663.47-.99 1.243-.942 2.643-1.59 3.913-2.494.899-.64 1.983-1.347 2.864-2.014 0 0 .515-.303.79-.684.354-.484-.637-.978-.637-.978-.556-.088-.874.038-1.262.215-.402.184-.918.591-1.265.862-.747.582-1.7 1.273-2.446 1.856-.913.714-1.53 1.15-2.53 1.745L24.8.96c.83-1.07-1.368-1.374-2.213-.245-.784 1.014-1.308 1.902-1.926 2.82-1.476 2.195-2.681 4.494-3.89 6.91-.461.918-.908 1.884-1.33 2.834-.205.46-.793 1.525.022 1.627 1.732.216 2.015-.605 2.406-1.59.646-1.63.856-1.932 1.266-2.946.396-.978.688-1.544 1.139-2.382.008-.014.143-.22.14-.223.084.17.61 1.933.683 2.13.357.954.994 3.174 1.35 4.183.258.837.336 1.078 1.46 1.049.561-.014.804-.226 1.172-.932.369-.705 1.978-3.683 1.978-3.683.477-.084 1.17-.204 1.617-.28.085-.014.262-.047.508-.095.166-.022.312-.05.42-.08l.02-.005 1.615-.32c-.11.55-.455 1.764-.516 2.071 0 0-.742 2.888.22 3.032.603.09.91-.011.91-.011 1.127-.134 1.14-1.644 1.14-1.644l.607-3.916 1.308-.259-1.322 4.461c-.19.633-.328 1.442.8 1.44.923.048.983-.533.983-.533.024-.089.752-2.443.935-3.288.117-.544.547-1.933.724-2.496.483-.093.843-.16 1.013-.188.2-.033.594-.098 1.097-.183-.005.516 0 1.24.007 1.341.11 1.577-.008 3.224.316 4.778.052.248.154.569.468.569.385 0 .497-.037.898-.07 1.158-.096.948-1.276.877-2.016-.08-.823-.16-1.512-.275-2.33-.094-.672-.153-1.55-.166-2.61v-.018c1.898-.32 3.95-.667 4.255-.717.534-.09.935-.044.828-1.152"/></svg>